<mxfile host="Electron" agent="Mozilla/5.0 (X11; Linux x86_64) AppleWebKit/537.36 (KHTML, like Gecko) draw.io/26.1.1 Chrome/134.0.6998.205 Electron/35.6.0 Safari/537.36" version="26.1.1">
  <diagram name="Page-1" id="qYV-YaB63U5P3tFd1gro">
    <mxGraphModel dx="1509" dy="1019" grid="1" gridSize="10" guides="1" tooltips="1" connect="1" arrows="1" fold="1" page="1" pageScale="1" pageWidth="850" pageHeight="1100" math="0" shadow="0">
      <root>
        <mxCell id="0" />
        <mxCell id="1" parent="0" />
        <mxCell id="Djk-LOV7WG-ekNEy1QtU-1" value="" style="whiteSpace=wrap;html=1;aspect=fixed;fillColor=none;" parent="1" vertex="1">
          <mxGeometry x="200" y="360" width="480" height="480" as="geometry" />
        </mxCell>
        <mxCell id="Djk-LOV7WG-ekNEy1QtU-11" value="" style="ellipse;whiteSpace=wrap;html=1;fillColor=none;rotation=-45;strokeWidth=4;strokeColor=#009900;" parent="1" vertex="1">
          <mxGeometry x="274" y="459" width="81.74" height="53" as="geometry" />
        </mxCell>
        <mxCell id="Djk-LOV7WG-ekNEy1QtU-3" value="" style="endArrow=classic;html=1;rounded=0;strokeWidth=2;" parent="1" edge="1">
          <mxGeometry width="50" height="50" relative="1" as="geometry">
            <mxPoint x="440" y="600" as="sourcePoint" />
            <mxPoint x="440" y="560" as="targetPoint" />
          </mxGeometry>
        </mxCell>
        <mxCell id="Djk-LOV7WG-ekNEy1QtU-4" value="" style="endArrow=classic;html=1;rounded=0;strokeWidth=2;" parent="1" edge="1">
          <mxGeometry width="50" height="50" relative="1" as="geometry">
            <mxPoint x="440" y="600" as="sourcePoint" />
            <mxPoint x="400" y="600" as="targetPoint" />
          </mxGeometry>
        </mxCell>
        <mxCell id="Djk-LOV7WG-ekNEy1QtU-13" value="" style="ellipse;whiteSpace=wrap;html=1;fillColor=none;rotation=-45;strokeWidth=4;strokeColor=#FF0000;" parent="1" vertex="1">
          <mxGeometry x="520" y="690" width="56" height="40" as="geometry" />
        </mxCell>
        <mxCell id="Djk-LOV7WG-ekNEy1QtU-15" value="" style="ellipse;whiteSpace=wrap;html=1;fillColor=none;rotation=-45;strokeWidth=4;strokeColor=#FF8000;" parent="1" vertex="1">
          <mxGeometry x="225" y="561" width="42" height="50" as="geometry" />
        </mxCell>
        <mxCell id="Djk-LOV7WG-ekNEy1QtU-14" value="" style="ellipse;whiteSpace=wrap;html=1;fillColor=none;rotation=-45;strokeWidth=4;strokeColor=#FF8000;" parent="1" vertex="1">
          <mxGeometry x="556" y="422.5" width="58" height="45" as="geometry" />
        </mxCell>
        <mxCell id="1e0gcyMxZUeUqyw_qMcl-1" value="" style="shape=cross;whiteSpace=wrap;html=1;fillColor=#9673A6;strokeColor=#9673a6;size=0.30621408045976367;" vertex="1" parent="1">
          <mxGeometry x="290" y="480.00000000000006" width="30" height="30" as="geometry" />
        </mxCell>
        <mxCell id="1e0gcyMxZUeUqyw_qMcl-3" value="" style="rhombus;whiteSpace=wrap;html=1;fillColor=#dae8fc;strokeColor=#004C99;" vertex="1" parent="1">
          <mxGeometry x="310" y="460" width="30" height="30" as="geometry" />
        </mxCell>
        <mxCell id="1e0gcyMxZUeUqyw_qMcl-7" value="" style="shape=cross;whiteSpace=wrap;html=1;fillColor=#9673A6;strokeColor=#9673a6;size=0.30621408045976367;" vertex="1" parent="1">
          <mxGeometry x="231" y="571" width="30" height="30" as="geometry" />
        </mxCell>
        <mxCell id="1e0gcyMxZUeUqyw_qMcl-9" value="" style="shape=cross;whiteSpace=wrap;html=1;fillColor=#9673A6;strokeColor=#9673a6;size=0.30621408045976367;" vertex="1" parent="1">
          <mxGeometry x="570" y="430" width="30" height="30" as="geometry" />
        </mxCell>
        <mxCell id="1e0gcyMxZUeUqyw_qMcl-25" value="" style="shape=cross;whiteSpace=wrap;html=1;fillColor=#9673A6;strokeColor=#9673a6;size=0.30621408045976367;" vertex="1" parent="1">
          <mxGeometry x="200" y="902.5" width="30" height="30" as="geometry" />
        </mxCell>
        <mxCell id="1e0gcyMxZUeUqyw_qMcl-26" value="" style="rhombus;whiteSpace=wrap;html=1;fillColor=#dae8fc;strokeColor=#004C99;" vertex="1" parent="1">
          <mxGeometry x="200" y="860" width="30" height="30" as="geometry" />
        </mxCell>
        <mxCell id="1e0gcyMxZUeUqyw_qMcl-28" value="Ground-truth source positions" style="text;html=1;align=left;verticalAlign=middle;whiteSpace=wrap;rounded=0;fontSize=20;" vertex="1" parent="1">
          <mxGeometry x="240" y="860" width="290" height="30" as="geometry" />
        </mxCell>
        <mxCell id="1e0gcyMxZUeUqyw_qMcl-29" value="Network predictions" style="text;html=1;align=left;verticalAlign=middle;whiteSpace=wrap;rounded=0;fontSize=20;" vertex="1" parent="1">
          <mxGeometry x="243" y="902.5" width="210" height="30" as="geometry" />
        </mxCell>
        <mxCell id="1e0gcyMxZUeUqyw_qMcl-30" value="" style="rhombus;whiteSpace=wrap;html=1;fillColor=#dae8fc;strokeColor=#004C99;" vertex="1" parent="1">
          <mxGeometry x="533" y="695" width="30" height="30" as="geometry" />
        </mxCell>
      </root>
    </mxGraphModel>
  </diagram>
</mxfile>
